<?xml version="1.0" standalone="no"?>
<!DOCTYPE svg PUBLIC "-//W3C//DTD SVG 20010904//EN"
 "http://www.w3.org/TR/2001/REC-SVG-20010904/DTD/svg10.dtd">
<svg version="1.0" xmlns="http://www.w3.org/2000/svg"
 width="278.000000pt" height="271.000000pt" viewBox="0 0 278.000000 271.000000"
 preserveAspectRatio="xMidYMid meet">

<g transform="translate(0.000000,271.000000) scale(0.100000,-0.100000)"
fill="#000000" stroke="none">
<path d="M1625 2351 c-3 -6 -63 -57 -133 -113 -175 -140 -257 -222 -302 -298
-40 -68 -73 -163 -85 -245 l-8 -48 29 7 c45 11 73 36 106 96 84 154 212 285
345 354 36 18 48 48 63 168 8 68 2 105 -15 79z"/>
<path d="M2198 2285 c-15 -9 -62 -28 -105 -44 -220 -81 -446 -177 -510 -217
-124 -77 -215 -195 -339 -439 -64 -127 -73 -140 -103 -148 -18 -4 -36 -6 -38
-3 -3 3 11 40 31 82 20 42 35 78 33 80 -8 8 -228 -108 -274 -144 -49 -40 -113
-119 -113 -141 0 -8 134 -11 440 -11 242 0 440 3 440 6 0 3 -14 33 -31 65 -28
51 -35 58 -53 52 -12 -4 -34 -7 -51 -8 -23 0 -31 5 -33 21 -3 23 59 62 325
208 192 105 282 193 354 343 40 83 91 283 77 301 -13 15 -16 15 -50 -3z"/>
<path d="M570 1169 c0 -55 2 -61 23 -67 12 -3 73 -32 136 -64 l114 -58 163 0
164 0 0 125 0 125 -300 0 -300 0 0 -61z"/>
<path d="M1247 1173 c-4 -3 -7 -54 -7 -112 0 -156 10 -151 -242 -144 l-200 6
-81 49 c-104 62 -121 67 -152 38 -37 -35 -41 -58 -13 -88 14 -15 43 -59 67
-99 42 -74 84 -111 166 -149 35 -17 64 -19 245 -17 223 2 302 15 414 68 70 33
148 117 189 205 26 55 32 80 35 158 l4 92 -209 0 c-115 0 -213 -3 -216 -7z"/>
<path d="M1741 1021 c-6 -11 -11 -26 -11 -34 0 -8 -18 -50 -40 -94 -52 -104
-122 -171 -233 -223 -102 -48 -144 -58 -285 -66 l-111 -7 39 -46 c72 -88 110
-197 110 -323 0 -39 4 -68 10 -68 14 0 890 620 890 629 0 5 -37 30 -82 57 -67
39 -194 129 -265 186 -8 6 -15 3 -22 -11z"/>
</g>
</svg>
